<svg xmlns="http://www.w3.org/2000/svg" xml:space="preserve" width="217" height="217" stroke="#000" stroke-width=".005" viewBox="0 0 512 512"><rect width="512" height="512" fill="#fff" stroke="none" stroke-width="0" rx="256"/><path d="M335.188 154.188 256 233.375l-79.188-79.187-22.624 22.624L233.375 256l-79.187 79.188 22.624 22.624L256 278.625l79.188 79.187 22.624-22.624L278.625 256l79.187-79.188z"/><path d="M256 0C114.609 0 0 114.609 0 256s114.609 256 256 256 256-114.609 256-256S397.391 0 256 0zm0 472c-119.297 0-216-96.703-216-216S136.703 40 256 40s216 96.703 216 216-96.703 216-216 216z"/></svg>